<svg width="18" height="9" viewBox="0 0 18 9" fill="none" xmlns="http://www.w3.org/2000/svg">
<path d="M7.0144 4.19291C8.43755 3.36541 9.8607 2.53794 11.2838 1.71045" stroke="white" stroke-width="0.34436" stroke-miterlimit="3" stroke-linecap="round"/>
<path d="M11.4473 1.66235C14.5038 0.594331 16.2512 1.65518 17.1249 2.18561" stroke="#C34036" stroke-width="0.34436" stroke-miterlimit="3" stroke-linecap="round"/>
<path d="M1.12476 3.73926C3.83003 5.36064 5.92295 4.58821 6.9694 4.20197" stroke="#C34036" stroke-width="0.34436" stroke-miterlimit="3" stroke-linecap="round"/>
<path d="M6.98096 1.72168C8.42137 2.56301 9.86177 3.40435 11.3022 4.24568" stroke="white" stroke-width="0.34436" stroke-miterlimit="3" stroke-linecap="round"/>
<path d="M9.11761 4.24254C9.81926 4.24254 10.3881 3.67375 10.3881 2.9721C10.3881 2.27046 9.81926 1.70166 9.11761 1.70166C8.41596 1.70166 7.84717 2.27046 7.84717 2.9721C7.84717 3.67375 8.41596 4.24254 9.11761 4.24254Z" stroke="white" stroke-width="0.34436" stroke-miterlimit="3" stroke-linecap="round"/>
<path fill-rule="evenodd" clip-rule="evenodd" d="M11.292 0.813481L6.97852 0.804688L6.96973 5.10054L11.3184 5.15336L11.292 0.813481Z" stroke="white" stroke-width="0.34436" stroke-miterlimit="1.5" stroke-linecap="round"/>
<path d="M3.37861 8.94622H2.00977V6.95654H2.2606V8.72247H3.37861V8.94622Z" fill="white"/>
<path d="M5.78751 8.94617H5.52599L4.80988 7.23673L4.28714 8.47885L4.09136 8.94617H3.82983L4.69396 6.95508H4.92338L5.78751 8.94617Z" fill="white"/>
<path d="M6.42383 8.94622V6.95654H7.18855C7.33435 6.95654 7.46205 6.98297 7.57167 7.03584C7.68128 7.0887 7.76566 7.1633 7.82479 7.25959C7.88393 7.35588 7.91351 7.46681 7.91351 7.59238C7.91351 7.72267 7.88443 7.83668 7.82631 7.93439C7.76821 8.03209 7.68459 8.10762 7.5755 8.16097C7.46639 8.2143 7.33791 8.24099 7.19007 8.24099H6.67466V8.94622H6.42383ZM7.17173 8.02714C7.2696 8.02714 7.35551 8.00944 7.42942 7.97404C7.50336 7.93862 7.56045 7.88835 7.60072 7.82321C7.64101 7.75807 7.66114 7.68207 7.66114 7.59521C7.66114 7.50931 7.64101 7.43449 7.60072 7.37075C7.56045 7.30703 7.50336 7.2577 7.42942 7.22277C7.35551 7.18784 7.2696 7.17037 7.17173 7.17037H6.67466V8.02714H7.17173Z" fill="white"/>
<path d="M8.85874 6.95654H8.60791V8.94622H8.85874V6.95654Z" fill="white"/>
<path d="M10.3698 8.97318C10.2046 8.97318 10.0474 8.94298 9.89799 8.88256C9.74861 8.82213 9.62499 8.73574 9.5271 8.62339L9.69227 8.47613C9.77284 8.56581 9.87378 8.63473 9.9951 8.68288C10.1164 8.73103 10.2413 8.7551 10.3698 8.7551C10.4667 8.7551 10.5539 8.74142 10.6313 8.71403C10.7088 8.68666 10.7698 8.64629 10.8141 8.59294C10.8585 8.53961 10.8807 8.4747 10.8807 8.39823C10.8807 8.32366 10.8564 8.26323 10.808 8.21696C10.7596 8.1707 10.6964 8.13365 10.6184 8.10579C10.5404 8.07796 10.432 8.04702 10.2933 8.01305C10.1588 7.98094 10.0448 7.94601 9.95152 7.90824C9.85822 7.87048 9.77947 7.81549 9.71522 7.74327C9.65099 7.67104 9.61886 7.57781 9.61886 7.46358C9.61886 7.35973 9.6497 7.26745 9.71141 7.18671C9.77309 7.106 9.8595 7.04298 9.97064 6.99768C10.0818 6.95236 10.2097 6.92969 10.3545 6.92969C10.4912 6.92969 10.6227 6.95164 10.7491 6.99555C10.8755 7.03945 10.9852 7.10151 11.078 7.18176L10.9281 7.34179C10.8567 7.28137 10.7708 7.23345 10.6704 7.19806C10.5699 7.16264 10.4682 7.14494 10.3652 7.14494C10.2745 7.14494 10.1914 7.15792 10.1159 7.18389C10.0405 7.20985 9.98057 7.24762 9.93622 7.29718C9.89186 7.34674 9.86969 7.40458 9.86969 7.47066C9.86969 7.53958 9.89264 7.59527 9.93851 7.63776C9.9844 7.68026 10.042 7.71353 10.1113 7.7376C10.1807 7.76168 10.2801 7.78976 10.4096 7.82187C10.5656 7.86341 10.6933 7.90494 10.7927 7.94648C10.8921 7.98802 10.9739 8.0449 11.0382 8.11714C11.1024 8.18936 11.1345 8.28163 11.1345 8.39399C11.1345 8.51484 11.1009 8.61891 11.0336 8.70625C10.9663 8.79358 10.8748 8.85989 10.7591 8.90521C10.6433 8.95053 10.5136 8.97318 10.3698 8.97318Z" fill="white"/>
<path d="M12.7999 8.97864C12.597 8.97864 12.4112 8.93309 12.2424 8.84198C12.0737 8.75088 11.9401 8.62673 11.8417 8.46955C11.7433 8.31234 11.6941 8.13935 11.6941 7.95053C11.6941 7.7617 11.7433 7.58871 11.8417 7.43151C11.9401 7.27432 12.0737 7.15041 12.2424 7.05977C12.4112 6.96913 12.597 6.92383 12.7999 6.92383C12.9406 6.92383 13.0726 6.94578 13.196 6.98967C13.3194 7.03357 13.43 7.0947 13.5279 7.17306L13.3841 7.34724C13.3036 7.28494 13.2133 7.23608 13.1134 7.20068C13.0135 7.16528 12.909 7.14758 12.7999 7.14758C12.6459 7.14758 12.5039 7.18298 12.3739 7.25377C12.2439 7.32459 12.1407 7.4216 12.0642 7.54479C11.9877 7.668 11.9495 7.80371 11.9495 7.95195C11.9495 8.10017 11.9877 8.2354 12.0642 8.35766C12.1407 8.47993 12.2439 8.57646 12.3739 8.64728C12.5039 8.71807 12.6459 8.75347 12.7999 8.75347C12.909 8.75347 13.0114 8.73601 13.1073 8.70108C13.2031 8.66615 13.2964 8.6147 13.3872 8.54672L13.5279 8.72374C13.428 8.80304 13.3163 8.86536 13.1929 8.91067C13.0696 8.95599 12.9385 8.97864 12.7999 8.97864Z" fill="white"/>
<path d="M15.1339 8.97864C14.9309 8.97864 14.7451 8.93309 14.5764 8.84198C14.4076 8.75088 14.274 8.62673 14.1757 8.46955C14.0773 8.31234 14.0281 8.13935 14.0281 7.95053C14.0281 7.7617 14.0773 7.58871 14.1757 7.43151C14.274 7.27432 14.4076 7.15041 14.5764 7.05977C14.7451 6.96913 14.9309 6.92383 15.1339 6.92383C15.3368 6.92383 15.5228 6.96913 15.6921 7.05977C15.8614 7.15041 15.9949 7.27432 16.0928 7.43151C16.1907 7.58871 16.2396 7.7617 16.2396 7.95053C16.2396 8.13935 16.1907 8.31234 16.0928 8.46955C15.9949 8.62673 15.8614 8.75088 15.6921 8.84198C15.5228 8.93309 15.3368 8.97864 15.1339 8.97864ZM15.1339 8.75347C15.2878 8.75347 15.4301 8.71807 15.5606 8.64728C15.6911 8.57646 15.7946 8.47993 15.871 8.35766C15.9475 8.2354 15.9858 8.10017 15.9858 7.95195C15.9858 7.80371 15.9475 7.668 15.871 7.54479C15.7946 7.4216 15.6911 7.32459 15.5606 7.25377C15.4301 7.18298 15.2878 7.14758 15.1339 7.14758C14.9799 7.14758 14.8379 7.18298 14.7079 7.25377C14.5779 7.32459 14.4747 7.4216 14.3982 7.54479C14.3217 7.668 14.2835 7.80371 14.2835 7.95195C14.2835 8.10017 14.3217 8.2354 14.3982 8.35766C14.4747 8.47993 14.5779 8.57646 14.7079 8.64728C14.8379 8.71807 14.9799 8.75347 15.1339 8.75347Z" fill="white"/>
</svg>
