<svg width="1096" height="560" viewBox="0 0 1096 560" fill="none" xmlns="http://www.w3.org/2000/svg">
<path d="M406.581 238.928C501.954 183.473 597.327 128.02 692.7 72.5645" stroke="white" stroke-width="23.0775" stroke-miterlimit="3" stroke-linecap="round"/>
<path d="M703.637 69.3556C908.471 -2.21812 1025.57 68.8751 1084.12 104.423" stroke="#C34036" stroke-width="23.0775" stroke-miterlimit="3" stroke-linecap="round"/>
<path d="M11.8752 208.546C193.171 317.204 333.429 265.439 403.557 239.555" stroke="#C34036" stroke-width="23.0775" stroke-miterlimit="3" stroke-linecap="round"/>
<path d="M404.326 73.3184C500.856 129.701 597.386 186.083 693.916 242.466" stroke="white" stroke-width="23.0775" stroke-miterlimit="3" stroke-linecap="round"/>
<path d="M547.518 242.252C594.539 242.252 632.657 204.134 632.657 157.113C632.657 110.092 594.539 71.9736 547.518 71.9736C500.496 71.9736 462.378 110.092 462.378 157.113C462.378 204.134 500.496 242.252 547.518 242.252Z" stroke="white" stroke-width="23.0775" stroke-miterlimit="3" stroke-linecap="round"/>
<path fill-rule="evenodd" clip-rule="evenodd" d="M693.234 12.4643L404.164 11.875L403.575 299.764L695.004 303.304L693.234 12.4643Z" stroke="white" stroke-width="23.0775" stroke-miterlimit="1.5" stroke-linecap="round"/>
<path d="M162.923 557.475H71.1888V424.136H87.9983V542.481H162.923V557.475Z" fill="white"/>
<path d="M324.353 557.476H306.827L258.837 442.916L223.805 526.157L210.685 557.476H193.158L251.069 424.041H266.443L324.353 557.476Z" fill="white"/>
<path d="M366.992 557.475V424.136H418.24C428.011 424.136 436.569 425.908 443.915 429.45C451.261 432.993 456.915 437.992 460.878 444.445C464.841 450.898 466.823 458.332 466.823 466.747C466.823 475.479 464.875 483.119 460.98 489.667C457.086 496.215 451.482 501.276 444.172 504.852C436.86 508.426 428.25 510.214 418.342 510.214H383.801V557.475H366.992ZM417.113 495.883C423.672 495.883 429.429 494.697 434.382 492.324C439.337 489.951 443.163 486.582 445.862 482.216C448.562 477.851 449.911 472.758 449.911 466.937C449.911 461.18 448.562 456.166 445.862 451.895C443.163 447.625 439.337 444.318 434.382 441.978C429.429 439.637 423.672 438.466 417.113 438.466H383.801V495.883H417.113Z" fill="white"/>
<path d="M530.165 424.136H513.356V557.475H530.165V424.136Z" fill="white"/>
<path d="M631.431 559.278C620.362 559.278 609.822 557.255 599.811 553.205C589.8 549.156 581.516 543.366 574.956 535.837L586.025 525.968C591.424 531.978 598.189 536.597 606.319 539.824C614.451 543.05 622.821 544.664 631.431 544.664C637.922 544.664 643.765 543.747 648.958 541.911C654.151 540.077 658.234 537.372 661.206 533.797C664.179 530.223 665.666 525.873 665.666 520.748C665.666 515.75 664.042 511.701 660.797 508.6C657.551 505.5 653.314 503.017 648.087 501.15C642.86 499.284 635.6 497.211 626.306 494.935C617.287 492.783 609.652 490.442 603.399 487.911C597.146 485.38 591.869 481.695 587.563 476.856C583.259 472.015 581.106 465.767 581.106 458.112C581.106 451.152 583.173 444.968 587.307 439.557C591.441 434.148 597.232 429.925 604.68 426.889C612.128 423.852 620.704 422.333 630.407 422.333C639.563 422.333 648.378 423.803 656.851 426.746C665.323 429.688 672.669 433.847 678.887 439.225L668.843 449.95C664.059 445.901 658.303 442.69 651.572 440.317C644.841 437.944 638.025 436.758 631.124 436.758C625.042 436.758 619.474 437.628 614.417 439.368C609.361 441.108 605.346 443.639 602.373 446.96C599.401 450.282 597.915 454.158 597.915 458.586C597.915 463.205 599.453 466.937 602.527 469.785C605.603 472.632 609.463 474.862 614.11 476.475C618.755 478.089 625.419 479.971 634.096 482.122C644.55 484.906 653.11 487.69 659.771 490.474C666.434 493.257 671.917 497.069 676.222 501.91C680.527 506.75 682.68 512.934 682.68 520.463C682.68 528.562 680.424 535.537 675.915 541.39C671.405 547.242 665.272 551.686 657.517 554.723C649.762 557.76 641.066 559.278 631.431 559.278Z" fill="white"/>
<path d="M794.297 559.658C780.7 559.658 768.247 556.606 756.938 550.5C745.629 544.394 736.678 536.075 730.084 525.541C723.49 515.006 720.193 503.412 720.193 490.758C720.193 478.104 723.49 466.511 730.084 455.976C736.678 445.442 745.629 437.138 756.938 431.064C768.247 424.99 780.7 421.954 794.297 421.954C803.727 421.954 812.577 423.424 820.844 426.366C829.113 429.308 836.526 433.405 843.085 438.656L833.451 450.329C828.053 446.154 822.005 442.879 815.31 440.507C808.613 438.135 801.609 436.948 794.297 436.948C783.98 436.948 774.465 439.321 765.753 444.065C757.041 448.811 750.123 455.312 744.997 463.568C739.872 471.825 737.31 480.919 737.31 490.854C737.31 500.787 739.872 509.85 744.997 518.043C750.123 526.237 757.041 532.706 765.753 537.451C774.465 542.196 783.98 544.568 794.297 544.568C801.609 544.568 808.476 543.398 814.899 541.057C821.322 538.716 827.575 535.269 833.657 530.712L843.085 542.576C836.39 547.89 828.907 552.066 820.64 555.103C812.371 558.14 803.59 559.658 794.297 559.658Z" fill="white"/>
<path d="M950.707 559.658C937.109 559.658 924.656 556.606 913.347 550.5C902.038 544.394 893.086 536.075 886.492 525.541C879.898 515.006 876.603 503.412 876.603 490.758C876.603 478.104 879.898 466.511 886.492 455.976C893.086 445.442 902.038 437.138 913.347 431.064C924.656 424.99 937.109 421.954 950.707 421.954C964.304 421.954 976.774 424.99 988.117 431.064C999.461 437.138 1008.41 445.442 1014.97 455.976C1021.53 466.511 1024.81 478.104 1024.81 490.758C1024.81 503.412 1021.53 515.006 1014.97 525.541C1008.41 536.075 999.461 544.394 988.117 550.5C976.774 556.606 964.304 559.658 950.707 559.658ZM950.707 544.568C961.024 544.568 970.557 542.196 979.302 537.451C988.049 532.706 994.985 526.237 1000.11 518.043C1005.23 509.85 1007.8 500.787 1007.8 490.854C1007.8 480.919 1005.23 471.825 1000.11 463.568C994.985 455.312 988.049 448.811 979.302 444.065C970.557 439.321 961.024 436.948 950.707 436.948C940.389 436.948 930.874 439.321 922.161 444.065C913.45 448.811 906.531 455.312 901.406 463.568C896.282 471.825 893.718 480.919 893.718 490.854C893.718 500.787 896.282 509.85 901.406 518.043C906.531 526.237 913.45 532.706 922.161 537.451C930.874 542.196 940.389 544.568 950.707 544.568Z" fill="white"/>
</svg>
