<svg width="1096" height="561" viewBox="0 0 1096 561" fill="none" xmlns="http://www.w3.org/2000/svg">
<path d="M406.581 239.449C501.954 183.994 597.327 128.541 692.7 73.0859" stroke="white" stroke-width="23.0775" stroke-miterlimit="3" stroke-linecap="round"/>
<path d="M703.637 69.8771C908.471 -1.69663 1025.57 69.3966 1084.12 104.944" stroke="#C34036" stroke-width="23.0775" stroke-miterlimit="3" stroke-linecap="round"/>
<path d="M11.8751 209.067C193.171 317.725 333.429 265.96 403.557 240.077" stroke="#C34036" stroke-width="23.0775" stroke-miterlimit="3" stroke-linecap="round"/>
<path d="M404.326 73.8398C500.856 130.222 597.386 186.605 693.916 242.988" stroke="white" stroke-width="23.0775" stroke-miterlimit="3" stroke-linecap="round"/>
<path d="M547.518 242.774C594.539 242.774 632.657 204.656 632.657 157.635C632.657 110.613 594.539 72.4951 547.518 72.4951C500.496 72.4951 462.378 110.613 462.378 157.635C462.378 204.656 500.496 242.774 547.518 242.774Z" stroke="white" stroke-width="23.0775" stroke-miterlimit="3" stroke-linecap="round"/>
<path fill-rule="evenodd" clip-rule="evenodd" d="M693.234 12.9858L404.164 12.3965L403.575 300.285L695.004 303.825L693.234 12.9858Z" stroke="white" stroke-width="23.0775" stroke-miterlimit="1.5" stroke-linecap="round"/>
<path d="M162.923 557.997H71.1888V424.658H87.9983V543.002H162.923V557.997Z" fill="white"/>
<path d="M324.353 557.997H306.827L258.837 443.438L223.805 526.679L210.685 557.997H193.158L251.069 424.562H266.443L324.353 557.997Z" fill="white"/>
<path d="M366.992 557.997V424.658H418.24C428.011 424.658 436.569 426.429 443.915 429.972C451.261 433.514 456.915 438.514 460.878 444.967C464.841 451.42 466.823 458.854 466.823 467.269C466.823 476 464.875 483.64 460.98 490.189C457.086 496.736 451.482 501.798 444.172 505.373C436.86 508.947 428.25 510.735 418.342 510.735H383.801V557.997H366.992ZM417.113 496.404C423.672 496.404 429.429 495.218 434.382 492.846C439.337 490.472 443.163 487.103 445.862 482.738C448.562 478.372 449.911 473.279 449.911 467.458C449.911 461.701 448.562 456.688 445.862 452.416C443.163 448.146 439.337 444.84 434.382 442.499C429.429 440.158 423.672 438.988 417.113 438.988H383.801V496.404H417.113Z" fill="white"/>
<path d="M530.165 424.658H513.356V557.997H530.165V424.658Z" fill="white"/>
<path d="M631.431 559.8C620.362 559.8 609.822 557.776 599.811 553.727C589.8 549.677 581.516 543.888 574.956 536.359L586.025 526.489C591.424 532.5 598.189 537.119 606.319 540.345C614.451 543.572 622.821 545.185 631.431 545.185C637.922 545.185 643.765 544.268 648.958 542.433C654.151 540.599 658.234 537.893 661.206 534.318C664.179 530.744 665.666 526.394 665.666 521.27C665.666 516.272 664.042 512.222 660.797 509.121C657.551 506.021 653.314 503.538 648.087 501.671C642.86 499.806 635.6 497.733 626.306 495.456C617.287 493.305 609.652 490.964 603.399 488.432C597.146 485.902 591.869 482.217 587.563 477.377C583.259 472.536 581.106 466.288 581.106 458.633C581.106 451.673 583.173 445.489 587.307 440.079C591.441 434.669 597.232 430.446 604.68 427.41C612.128 424.373 620.704 422.854 630.407 422.854C639.563 422.854 648.378 424.325 656.851 427.268C665.323 430.21 672.669 434.369 678.887 439.747L668.843 450.471C664.059 446.422 658.303 443.211 651.572 440.839C644.841 438.465 638.025 437.279 631.124 437.279C625.042 437.279 619.474 438.149 614.417 439.889C609.361 441.629 605.346 444.161 602.373 447.481C599.401 450.803 597.915 454.679 597.915 459.107C597.915 463.726 599.453 467.458 602.527 470.306C605.603 473.154 609.463 475.384 614.11 476.997C618.755 478.61 625.419 480.493 634.096 482.644C644.55 485.428 653.11 488.211 659.771 490.995C666.434 493.779 671.917 497.591 676.222 502.432C680.527 507.271 682.68 513.455 682.68 520.985C682.68 529.084 680.424 536.058 675.915 541.911C671.405 547.764 665.272 552.208 657.517 555.245C649.762 558.282 641.066 559.8 631.431 559.8Z" fill="white"/>
<path d="M794.297 560.18C780.7 560.18 768.247 557.127 756.938 551.022C745.629 544.916 736.678 536.596 730.084 526.062C723.49 515.527 720.193 503.934 720.193 491.28C720.193 478.626 723.49 467.033 730.084 456.497C736.678 445.963 745.629 437.659 756.938 431.585C768.247 425.511 780.7 422.475 794.297 422.475C803.727 422.475 812.577 423.946 820.844 426.888C829.113 429.83 836.526 433.926 843.085 439.177L833.451 450.85C828.053 446.675 822.005 443.401 815.31 441.028C808.613 438.656 801.609 437.47 794.297 437.47C783.98 437.47 774.465 439.842 765.753 444.587C757.041 449.332 750.123 455.834 744.997 464.09C739.872 472.347 737.31 481.441 737.31 491.375C737.31 501.308 739.872 510.371 744.997 518.564C750.123 526.759 757.041 533.227 765.753 537.973C774.465 542.717 783.98 545.09 794.297 545.09C801.609 545.09 808.476 543.919 814.899 541.578C821.322 539.238 827.575 535.79 833.657 531.234L843.085 543.098C836.39 548.412 828.907 552.588 820.64 555.625C812.371 558.662 803.59 560.18 794.297 560.18Z" fill="white"/>
<path d="M950.707 560.18C937.109 560.18 924.656 557.127 913.347 551.022C902.038 544.916 893.086 536.596 886.492 526.062C879.898 515.527 876.603 503.934 876.603 491.28C876.603 478.626 879.898 467.033 886.492 456.497C893.086 445.963 902.038 437.659 913.347 431.585C924.656 425.511 937.109 422.475 950.707 422.475C964.304 422.475 976.774 425.511 988.117 431.585C999.461 437.659 1008.41 445.963 1014.97 456.497C1021.53 467.033 1024.81 478.626 1024.81 491.28C1024.81 503.934 1021.53 515.527 1014.97 526.062C1008.41 536.596 999.461 544.916 988.117 551.022C976.774 557.127 964.304 560.18 950.707 560.18ZM950.707 545.09C961.024 545.09 970.557 542.717 979.302 537.973C988.049 533.227 994.985 526.759 1000.11 518.564C1005.23 510.371 1007.8 501.308 1007.8 491.375C1007.8 481.441 1005.23 472.347 1000.11 464.09C994.985 455.834 988.049 449.332 979.302 444.587C970.557 439.842 961.024 437.47 950.707 437.47C940.389 437.47 930.874 439.842 922.161 444.587C913.45 449.332 906.531 455.834 901.406 464.09C896.282 472.347 893.718 481.441 893.718 491.375C893.718 501.308 896.282 510.371 901.406 518.564C906.531 526.759 913.45 533.227 922.161 537.973C930.874 542.717 940.389 545.09 950.707 545.09Z" fill="white"/>
</svg>
